# xmcd
#
# Track frame offsets:
#	150
#	12065
#	24942
#	46479
#	67606
#	88336
#	103952
#	128488
#	139863
#	150863
#	185820
#	210932
#	234796
#	250536
#	264761
#	296854
#	318661
#	332749
#
# Disc length: 4645 seconds
#
# Revision: 1
# Processed by: cddbd v1.5.2PL0 Copyright (c) Steve Scherf et al.
# Submitted via: audiograbber 1.83.01
#
DISCID=e9122312
DTITLE=Lismore - Collection 2004
DYEAR=2004
DGENRE=Blues
TTITLE0=Aretha Franklin - Exactly Like you
TTITLE1=B.B. King - Everyday I have the Blues
TTITLE2=Wrobel, Hopkin, Barrett - Solid Old Man
TTITLE3=Dan Barrett and His Jazz Bears - What Is This Thing Called Love
TTITLE4=Dan Barrett and His Jazz Bears - T'aint me
TTITLE5=Ella Fitzgerald - Bill Bailey
TTITLE6=Niki Haris - Fly Me To the Moon
TTITLE7=Wild Women Blues - Made Your Move To Soon
TTITLE8=Al Hibbler - Song Of The Wonderer
TTITLE9=Wrobel, Hopkin, Barrett - Four Or Five Times
TTITLE10=Wrobel, Hopkin, Barrett - Harlem Sundown
TTITLE11=Engelbert Wrodel's Swing Society - El Salon De Bucket
TTITLE12=Count Basie - I Got Rhythm
TTITLE13=Lorez Alexandria - I Can't Believe That You're In Love With Me
TTITLE14=Niki Haris - I Love Being Here With You
TTITLE15=Niki Haris - Cheek To Cheek
TTITLE16=Wild Women Blues. - Route 66
TTITLE17=Sista Monica - Baby Workout
EXTD=
EXTT0=
EXTT1=
EXTT2=
EXTT3=
EXTT4=
EXTT5=
EXTT6=
EXTT7=
EXTT8=
EXTT9=
EXTT10=
EXTT11=
EXTT12=
EXTT13=
EXTT14=
EXTT15=
EXTT16=
EXTT17=
PLAYORDER=
